<svg width="689" height="500" viewBox="0 0 689 500" fill="none" xmlns="http://www.w3.org/2000/svg">
<path d="M300.035 212.228C311.428 275.118 347.246 362.868 420.875 418.669C492.209 476.973 577.231 479.955 627.76 451.852C680.375 424.571 698.5 366.208 684.172 320.818C669.733 273.343 636.306 241.088 604.555 220.315C571.536 199.234 540.196 189.633 500.602 180.386C462.057 171.426 421.342 157.363 389.118 137.815C356.421 119.743 332.214 96.1836 315.809 102.36C300.94 107.427 288.274 147.398 300.035 212.228Z" fill="#E7F0FE"/>
<path d="M380.579 300.794C372.723 237.19 341.882 146.963 271.522 85.8135C203.592 22.3345 118.913 13.0478 66.9182 37.3409C12.8875 60.6594 -8.45882 117.555 3.30402 163.913C15.0607 212.362 46.6184 247.03 77.1398 270.117C108.913 293.603 139.65 305.511 178.647 317.679C216.611 329.482 256.455 346.537 287.523 368.437C319.142 388.898 341.982 414.206 358.699 409.259C373.819 405.309 388.691 366.362 380.579 300.794Z" fill="#E7F0FE"/>
<path d="M397.486 430.612H295.785V491.158H397.486V430.612Z" fill="#A0C5FF"/>
<g opacity="0.3">
<path d="M397.486 469.905L295.785 456.862V430.612H397.486V469.905Z" fill="#000141"/>
</g>
<path d="M543.055 480.533H147.423C139.092 480.533 132.336 488.32 132.336 497.923H558.144C558.142 488.317 551.388 480.533 543.055 480.533Z" fill="#C7DBFF"/>
<path d="M646.056 28.584V415.554C646.056 431.329 634.943 444.138 621.258 444.138H89.4015C77.8172 444.138 68.0819 434.948 65.3628 422.544C64.8682 420.301 64.6138 417.964 64.6138 415.554V28.584C64.6138 12.7947 75.7261 0 89.3995 0H621.255C634.943 0 646.056 12.7947 646.056 28.584Z" fill="#A0C5FF"/>
<path d="M611.824 16.2695H98.8434C87.7331 16.2695 78.7263 26.6515 78.7263 39.458V404.673C78.7263 417.479 87.7331 427.861 98.8434 427.861H611.824C622.934 427.861 631.941 417.479 631.941 404.673V39.458C631.941 26.6515 622.934 16.2695 611.824 16.2695Z" fill="#E7F0FE"/>
<path d="M611.824 16.2695H98.8434C87.7331 16.2695 78.7263 26.6515 78.7263 39.458V404.673C78.7263 417.479 87.7331 427.861 98.8434 427.861H611.824C622.934 427.861 631.941 417.479 631.941 404.673V39.458C631.941 26.6515 622.934 16.2695 611.824 16.2695Z" fill="#E7F0FE"/>
<path d="M611.824 30.1925H386.434V413.936H611.824C616.256 413.936 619.862 409.78 619.862 404.673V39.4579C619.862 34.3486 616.254 30.1925 611.824 30.1925Z" fill="white"/>
<path d="M74.9256 499.828H635.745C637.278 499.828 638.522 498.394 638.522 496.627C638.522 494.86 637.278 493.427 635.745 493.427H74.9256C73.3926 493.427 72.149 494.86 72.149 496.627C72.149 498.396 73.3906 499.828 74.9256 499.828Z" fill="#A0C5FF"/>
<path d="M436.364 74.06C428.521 74.06 422.165 81.3858 422.165 90.4265C422.165 99.4672 428.523 106.793 436.364 106.793C444.207 106.793 450.563 99.4672 450.563 90.4265C450.563 81.3881 444.207 74.06 436.364 74.06ZM436.364 104.103C429.809 104.103 424.486 97.9841 424.486 90.4289C424.486 82.8736 429.809 76.7542 436.364 76.7542C442.919 76.7542 448.227 82.8736 448.227 90.4289C448.227 97.9841 442.919 104.103 436.364 104.103Z" fill="#A0C5FF"/>
<path d="M504.419 77.8588H467.058C466.139 77.8588 465.287 78.5826 465.139 79.6281C464.95 80.9599 465.839 82.1118 466.959 82.1118H504.419C505.439 82.1118 506.264 81.1586 506.264 79.9853C506.264 78.8121 505.437 77.8588 504.419 77.8588Z" fill="#A0C5FF"/>
<path d="M575.77 77.8588H510.617C509.597 77.8588 508.772 78.8121 508.772 79.9853C508.772 81.1609 509.599 82.1118 510.617 82.1118H575.868C576.989 82.1118 577.877 80.9599 577.689 79.6281C577.541 78.5826 576.689 77.8588 575.77 77.8588Z" fill="#A0C5FF"/>
<path d="M520.524 88.2998H467.06C466.141 88.2998 465.289 89.0236 465.141 90.0692C464.953 91.4009 465.841 92.5529 466.962 92.5529H520.526C521.546 92.5529 522.371 91.5996 522.371 90.4263C522.369 89.2531 521.542 88.2998 520.524 88.2998Z" fill="#A0C5FF"/>
<path d="M520.524 98.7433H467.06C466.141 98.7433 465.289 99.4671 465.141 100.513C464.953 101.844 465.841 102.999 466.962 102.999H520.526C521.546 102.999 522.371 102.045 522.371 100.872C522.369 99.6942 521.542 98.7433 520.524 98.7433Z" fill="#A0C5FF"/>
<path d="M575.77 88.2998H526.72C525.702 88.2998 524.875 89.2531 524.875 90.4263C524.875 91.602 525.702 92.5529 526.72 92.5529H575.866C576.987 92.5529 577.875 91.4009 577.686 90.0692C577.541 89.026 576.689 88.2998 575.77 88.2998Z" fill="#A0C5FF"/>
<path d="M436.159 98.5943C435.929 98.5943 435.699 98.5683 435.471 98.5139C434.577 98.301 433.795 97.6836 433.3 96.7989L428.275 87.8315C427.255 86.0125 427.708 83.5832 429.288 82.4076C430.869 81.2272 432.974 81.7547 433.996 83.5737L437.142 89.1917L453.393 76.6524C454.954 75.4413 457.068 75.9263 458.115 77.7311C459.161 79.5288 458.743 81.9652 457.179 83.1716L438.053 97.9296C437.489 98.3672 436.828 98.5943 436.159 98.5943Z" fill="#A0C5FF"/>
<path d="M549.316 170.771C549.316 179.812 555.671 187.137 563.514 187.137C571.358 187.137 577.713 179.812 577.713 170.771C577.713 161.73 571.358 154.404 563.514 154.404C555.671 154.404 549.316 161.73 549.316 170.771ZM551.651 170.771C551.651 163.216 556.96 157.096 563.514 157.096C570.069 157.096 575.392 163.216 575.392 170.771C575.392 178.326 570.069 184.445 563.514 184.445C556.96 184.445 551.651 178.326 551.651 170.771Z" fill="#A0C5FF"/>
<path d="M495.459 158.203H532.821C533.74 158.203 534.592 158.927 534.739 159.973C534.928 161.304 534.04 162.456 532.919 162.456H495.459C494.439 162.456 493.615 161.503 493.615 160.33C493.615 159.154 494.442 158.203 495.459 158.203Z" fill="#A0C5FF"/>
<path d="M424.109 158.203H489.262C490.282 158.203 491.107 159.157 491.107 160.33C491.107 161.505 490.28 162.456 489.262 162.456H424.01C422.89 162.456 422.001 161.304 422.19 159.973C422.338 158.927 423.189 158.203 424.109 158.203Z" fill="#A0C5FF"/>
<path d="M479.354 168.644H532.819C533.738 168.644 534.59 169.368 534.737 170.414C534.926 171.745 534.038 172.897 532.917 172.897H479.352C478.332 172.897 477.507 171.944 477.507 170.771C477.509 169.598 478.337 168.644 479.354 168.644Z" fill="#A0C5FF"/>
<path d="M479.354 179.085H532.819C533.738 179.085 534.59 179.809 534.737 180.855C534.926 182.186 534.038 183.341 532.917 183.341H479.352C478.332 183.341 477.507 182.387 477.507 181.214C477.509 180.039 478.337 179.085 479.354 179.085Z" fill="#A0C5FF"/>
<path d="M424.111 168.644H473.159C474.177 168.644 475.004 169.598 475.004 170.771C475.004 171.946 474.177 172.897 473.159 172.897H424.01C422.89 172.897 422.001 171.745 422.19 170.414C422.338 169.368 423.191 168.644 424.111 168.644Z" fill="#A0C5FF"/>
<path d="M565.097 177.011C564.867 177.011 564.637 176.985 564.409 176.93C563.514 176.718 562.732 176.1 562.238 175.215L557.212 166.248C556.192 164.429 556.646 162 558.226 160.824C559.806 159.644 561.912 160.171 562.934 161.99L566.079 167.608L582.33 155.069C583.892 153.858 586.006 154.343 587.052 156.148C588.099 157.945 587.68 160.382 586.117 161.588L566.991 176.346C566.426 176.784 565.766 177.011 565.097 177.011Z" fill="#A0C5FF"/>
<path d="M537.126 372.375C537.126 372.375 528.491 398.343 521.228 413.323C533.912 413.323 543.535 413.323 543.535 413.323V380.181L537.126 372.375Z" fill="#FECECC"/>
<path d="M564.142 334.563C564.142 334.563 543.781 350.911 534.926 372.148C534.926 372.148 547.093 399.379 554.356 394.996C564.961 388.593 564.142 334.563 564.142 334.563Z" fill="#A0C5FF"/>
<path d="M603.822 413.323C603.474 378.916 594.545 333.939 570.625 333.31C551.501 332.808 539.367 377.399 537.124 413.323H603.822Z" fill="#5D74E4"/>
<path d="M555.056 355.282C554.965 355.282 554.877 355.23 554.826 355.133C554.748 354.987 554.789 354.797 554.916 354.708C556.188 353.816 555.866 352.352 555.852 352.29C555.813 352.124 555.899 351.954 556.041 351.909C556.182 351.864 556.33 351.961 556.371 352.124C556.533 352.801 556.496 354.324 555.197 355.235C555.152 355.268 555.103 355.282 555.056 355.282Z" fill="#A0C5FF"/>
<path d="M561.542 369.619C561.452 369.619 561.364 369.567 561.313 369.47C561.235 369.324 561.276 369.132 561.403 369.044C562.675 368.153 562.353 366.688 562.339 366.627C562.3 366.461 562.386 366.291 562.527 366.246C562.669 366.201 562.817 366.298 562.858 366.461C563.02 367.138 562.983 368.659 561.684 369.572C561.639 369.605 561.592 369.619 561.542 369.619Z" fill="#A0C5FF"/>
<path d="M574.949 357.492C574.859 357.492 574.77 357.44 574.719 357.343C574.641 357.196 574.682 357.004 574.809 356.917C576.082 356.025 575.76 354.561 575.745 354.499C575.706 354.334 575.792 354.163 575.934 354.119C576.076 354.074 576.223 354.171 576.264 354.334C576.427 355.01 576.39 356.531 575.091 357.444C575.045 357.477 574.996 357.492 574.949 357.492Z" fill="#A0C5FF"/>
<path d="M556.254 377.877C556.254 377.981 556.209 378.083 556.125 378.142C555.997 378.232 555.831 378.185 555.755 378.038C554.982 376.571 553.711 376.943 553.658 376.959C553.514 377.004 553.367 376.905 553.328 376.742C553.287 376.578 553.373 376.408 553.514 376.361C554.101 376.174 555.421 376.216 556.213 377.714C556.242 377.766 556.254 377.823 556.254 377.877Z" fill="#A0C5FF"/>
<path d="M543.804 391.116C543.713 391.116 543.625 391.064 543.574 390.967C543.496 390.821 543.537 390.629 543.664 390.542C544.937 389.65 544.614 388.186 544.6 388.124C544.561 387.959 544.647 387.788 544.789 387.743C544.93 387.698 545.078 387.795 545.119 387.959C545.281 388.635 545.244 390.156 543.945 391.069C543.9 391.102 543.851 391.116 543.804 391.116Z" fill="#A0C5FF"/>
<path d="M553.443 361.707C553.434 361.603 553.471 361.496 553.549 361.428C553.668 361.326 553.837 361.352 553.925 361.489C554.815 362.864 556.049 362.355 556.1 362.334C556.24 362.275 556.393 362.355 556.447 362.516C556.5 362.674 556.43 362.854 556.291 362.916C555.72 363.166 554.405 363.268 553.492 361.863C553.465 361.816 553.449 361.761 553.443 361.707Z" fill="#A0C5FF"/>
<path d="M568.778 350.764C568.77 350.66 568.807 350.554 568.885 350.485C569.004 350.384 569.172 350.412 569.262 350.549C570.153 351.923 571.386 351.415 571.438 351.394C571.577 351.334 571.731 351.415 571.784 351.576C571.838 351.734 571.768 351.914 571.628 351.975C571.06 352.226 569.743 352.328 568.829 350.923C568.801 350.873 568.784 350.819 568.778 350.764Z" fill="#A0C5FF"/>
<path d="M559.328 390.08C559.32 389.976 559.357 389.87 559.435 389.801C559.554 389.699 559.722 389.728 559.81 389.865C560.701 391.239 561.934 390.731 561.986 390.71C562.125 390.65 562.279 390.731 562.332 390.892C562.386 391.05 562.316 391.23 562.176 391.291C561.606 391.542 560.288 391.644 559.377 390.239C559.351 390.189 559.332 390.135 559.328 390.08Z" fill="#A0C5FF"/>
<path d="M572.482 367.417C572.474 367.313 572.511 367.207 572.589 367.138C572.708 367.036 572.876 367.065 572.967 367.199C573.857 368.574 575.091 368.065 575.142 368.044C575.282 367.985 575.435 368.065 575.489 368.226C575.542 368.385 575.472 368.564 575.333 368.626C574.762 368.877 573.447 368.978 572.534 367.573C572.503 367.526 572.487 367.471 572.482 367.417Z" fill="#A0C5FF"/>
<path d="M542.716 379.218C542.708 379.114 542.745 379.008 542.823 378.939C542.942 378.837 543.11 378.866 543.198 379.003C544.089 380.377 545.322 379.869 545.374 379.848C545.513 379.788 545.667 379.869 545.72 380.03C545.774 380.188 545.704 380.368 545.564 380.429C544.994 380.68 543.679 380.782 542.765 379.377C542.739 379.327 542.72 379.273 542.716 379.218Z" fill="#A0C5FF"/>
<path d="M566.043 359.058C565.55 359.058 565.214 358.722 564.783 358.289C564.586 358.092 564.364 357.87 564.085 357.634C563.453 357.101 563.365 357.194 562.938 357.636C562.704 357.88 562.382 358.211 561.883 358.506C561.421 358.778 560.988 358.823 560.592 358.641C559.889 358.315 559.599 357.378 559.589 357.338C559.54 357.177 559.616 357 559.755 356.943C559.895 356.886 560.049 356.971 560.098 357.132C560.1 357.139 560.322 357.846 560.798 358.066C561.046 358.18 561.321 358.145 561.641 357.955C562.078 357.697 562.357 357.409 562.581 357.177C563.102 356.638 563.469 356.347 564.405 357.134C564.703 357.385 564.935 357.617 565.138 357.82C565.776 358.459 565.969 358.653 566.786 358.166C566.917 358.088 567.079 358.147 567.149 358.298C567.217 358.45 567.165 358.637 567.034 358.717C566.628 358.958 566.312 359.058 566.043 359.058Z" fill="#A0C5FF"/>
<path d="M570.915 388.938C570.422 388.938 570.086 388.602 569.655 388.169C569.458 387.973 569.236 387.75 568.957 387.514C568.325 386.982 568.237 387.074 567.81 387.516C567.576 387.76 567.254 388.091 566.755 388.387C566.293 388.659 565.86 388.704 565.464 388.519C564.76 388.193 564.471 387.256 564.461 387.216C564.411 387.055 564.485 386.878 564.627 386.821C564.766 386.764 564.92 386.849 564.97 387.01C564.972 387.017 565.193 387.724 565.669 387.944C565.918 388.058 566.193 388.022 566.513 387.833C566.95 387.575 567.229 387.287 567.453 387.055C567.974 386.516 568.341 386.225 569.277 387.012C569.575 387.263 569.807 387.495 570.01 387.698C570.648 388.337 570.841 388.531 571.658 388.044C571.789 387.966 571.951 388.025 572.021 388.176C572.088 388.328 572.037 388.514 571.906 388.595C571.5 388.836 571.183 388.938 570.915 388.938Z" fill="#A0C5FF"/>
<path d="M547.005 372.375C546.982 372.375 546.96 372.373 546.937 372.366C546.223 372.153 545.911 371.642 545.776 371.251C545.521 370.518 545.694 369.662 545.977 369.137C546.478 368.209 546.658 367.443 545.915 366.719C545.538 366.35 545.482 365.969 545.503 365.714C545.566 364.919 546.414 364.342 546.51 364.278C546.64 364.193 546.804 364.245 546.878 364.394C546.952 364.543 546.906 364.732 546.777 364.817C546.597 364.938 546.071 365.369 546.038 365.771C546.034 365.83 546.02 366.01 546.262 366.244C547.514 367.464 546.73 368.917 546.435 369.463C546.229 369.842 546.092 370.492 546.276 371.02C546.406 371.393 546.675 371.644 547.073 371.762C547.216 371.805 547.303 371.975 547.266 372.141C547.235 372.283 547.124 372.375 547.005 372.375Z" fill="#A0C5FF"/>
<path d="M552.511 409.962C552.488 409.962 552.466 409.96 552.443 409.952C551.729 409.74 551.417 409.229 551.282 408.838C551.027 408.105 551.2 407.249 551.483 406.724C551.983 405.796 552.164 405.03 551.421 404.306C551.044 403.937 550.988 403.556 551.009 403.301C551.072 402.506 551.92 401.929 552.016 401.865C552.146 401.78 552.31 401.832 552.384 401.981C552.458 402.13 552.412 402.319 552.283 402.404C552.103 402.525 551.577 402.955 551.546 403.358C551.542 403.417 551.528 403.596 551.77 403.831C553.022 405.051 552.238 406.504 551.942 407.05C551.737 407.428 551.6 408.079 551.784 408.606C551.914 408.98 552.183 409.231 552.581 409.349C552.724 409.392 552.81 409.562 552.774 409.728C552.739 409.87 552.63 409.962 552.511 409.962Z" fill="#A0C5FF"/>
<path d="M549.898 400.72C549.876 400.72 549.853 400.718 549.831 400.711C549.117 400.498 548.805 399.987 548.669 399.597C548.415 398.863 548.587 398.007 548.87 397.482C549.371 396.555 549.552 395.788 548.809 395.064C548.431 394.695 548.376 394.314 548.396 394.059C548.46 393.264 549.307 392.687 549.404 392.623C549.533 392.538 549.697 392.59 549.771 392.739C549.845 392.888 549.8 393.077 549.671 393.163C549.49 393.283 548.965 393.714 548.934 394.116C548.93 394.175 548.915 394.355 549.158 394.589C550.409 395.809 549.626 397.262 549.33 397.808C549.125 398.187 548.987 398.837 549.172 399.365C549.301 399.738 549.57 399.989 549.968 400.107C550.112 400.15 550.198 400.32 550.161 400.486C550.126 400.625 550.017 400.72 549.898 400.72Z" fill="#A0C5FF"/>
<path d="M568.975 375.339C568.988 375.36 568.998 375.384 569.006 375.41C569.254 376.212 569.063 376.796 568.86 377.144C568.479 377.797 567.764 378.116 567.229 378.14C566.283 378.182 565.63 378.44 565.53 379.559C565.478 380.127 565.234 380.394 565.039 380.517C564.432 380.902 563.543 380.42 563.443 380.363C563.309 380.287 563.254 380.103 563.32 379.949C563.385 379.795 563.545 379.732 563.679 379.807C563.865 379.914 564.471 380.169 564.779 379.975C564.824 379.947 564.959 379.859 564.994 379.495C565.166 377.614 566.65 377.546 567.208 377.522C567.596 377.503 568.138 377.272 568.415 376.798C568.61 376.465 568.639 376.067 568.501 375.62C568.452 375.46 568.524 375.282 568.663 375.223C568.78 375.173 568.907 375.225 568.975 375.339Z" fill="#A0C5FF"/>
<path d="M564.37 403.696C564.37 403.722 564.368 403.748 564.362 403.774C564.177 404.597 563.734 404.957 563.395 405.113C562.759 405.406 562.016 405.207 561.561 404.881C560.756 404.304 560.091 404.096 559.464 404.952C559.143 405.387 558.813 405.451 558.591 405.427C557.902 405.354 557.401 404.377 557.346 404.266C557.272 404.117 557.317 403.928 557.446 403.842C557.576 403.757 557.74 403.809 557.814 403.958C557.918 404.167 558.292 404.772 558.641 404.81C558.692 404.815 558.848 404.831 559.051 404.552C560.11 403.109 561.37 404.013 561.844 404.353C562.172 404.59 562.737 404.748 563.194 404.536C563.519 404.386 563.736 404.077 563.839 403.618C563.876 403.452 564.023 403.353 564.167 403.395C564.288 403.433 564.37 403.559 564.37 403.696Z" fill="#A0C5FF"/>
<path d="M552.556 391.029C551.789 391.029 551.165 390.31 551.165 389.425C551.165 388.543 551.789 387.824 552.556 387.824C553.324 387.824 553.947 388.543 553.947 389.425C553.945 390.31 553.321 391.029 552.556 391.029ZM552.556 388.443C552.086 388.443 551.704 388.883 551.704 389.425C551.704 389.967 552.086 390.407 552.556 390.407C553.026 390.407 553.408 389.967 553.408 389.425C553.408 388.883 553.026 388.443 552.556 388.443Z" fill="#A0C5FF"/>
<path d="M573.439 364.574C572.671 364.574 572.047 363.855 572.047 362.97C572.047 362.085 572.671 361.366 573.439 361.366C574.206 361.366 574.83 362.085 574.83 362.97C574.828 363.855 574.204 364.574 573.439 364.574ZM573.439 361.988C572.969 361.988 572.587 362.428 572.587 362.97C572.587 363.512 572.969 363.952 573.439 363.952C573.909 363.952 574.29 363.512 574.29 362.97C574.29 362.428 573.909 361.988 573.439 361.988Z" fill="#A0C5FF"/>
<path d="M551.889 367.838C551.121 367.838 550.498 367.119 550.498 366.234C550.498 365.35 551.121 364.633 551.889 364.633C552.656 364.633 553.28 365.352 553.28 366.234C553.278 367.119 552.656 367.838 551.889 367.838ZM551.889 365.253C551.419 365.253 551.037 365.693 551.037 366.234C551.037 366.776 551.419 367.216 551.889 367.216C552.359 367.216 552.741 366.776 552.741 366.234C552.741 365.693 552.359 365.253 551.889 365.253Z" fill="#A0C5FF"/>
<path d="M541.949 409.964C541.181 409.964 540.557 409.245 540.557 408.361C540.557 407.478 541.181 406.759 541.949 406.759C542.716 406.759 543.34 407.478 543.34 408.361C543.34 409.245 542.716 409.964 541.949 409.964ZM541.949 407.381C541.479 407.381 541.097 407.821 541.097 408.363C541.097 408.905 541.479 409.345 541.949 409.345C542.419 409.345 542.8 408.905 542.8 408.363C542.802 407.821 542.419 407.381 541.949 407.381Z" fill="#A0C5FF"/>
<path d="M563.634 351.275C562.866 351.275 562.242 350.556 562.242 349.672C562.242 348.789 562.866 348.07 563.634 348.07C564.401 348.07 565.025 348.789 565.025 349.672C565.023 350.556 564.399 351.275 563.634 351.275ZM563.634 348.69C563.164 348.69 562.782 349.13 562.782 349.672C562.782 350.213 563.164 350.653 563.634 350.653C564.103 350.653 564.485 350.213 564.485 349.672C564.485 349.13 564.103 348.69 563.634 348.69Z" fill="#A0C5FF"/>
<path d="M574.29 404.41C573.523 404.41 572.899 403.691 572.899 402.806C572.899 401.922 573.523 401.203 574.29 401.203C575.058 401.203 575.681 401.922 575.681 402.806C575.681 403.691 575.058 404.41 574.29 404.41ZM574.29 401.825C573.82 401.825 573.438 402.265 573.438 402.806C573.438 403.348 573.82 403.788 574.29 403.788C574.76 403.788 575.142 403.348 575.142 402.806C575.142 402.265 574.76 401.825 574.29 401.825Z" fill="#A0C5FF"/>
<path d="M565.688 324.354L564.157 334.779C564.157 334.779 565.836 344.581 577.405 337.125L574.58 322.225L565.688 324.354Z" fill="#FECECC"/>
<path opacity="0.1" d="M574.578 322.228L565.688 324.354L565.023 328.877C565.234 328.948 565.448 329.017 565.661 329.08C566.681 329.39 567.721 329.651 568.717 330.012C569.496 330.296 570.274 330.661 570.851 331.198C571.456 331.763 571.756 332.468 571.797 333.225C571.867 334.464 571.103 335.548 570.564 336.657C570.217 337.369 570.03 338.327 569.267 338.821C568.713 339.181 567.986 339.311 567.27 339.299C569.236 340.349 572.39 340.361 577.405 337.13L574.578 322.228Z" fill="#201135"/>
<path d="M557.692 295.609C557.692 295.609 552.361 329.097 563.229 329.885C574.099 330.672 581.551 317.355 581.551 317.355C581.551 317.355 586.063 316.527 586.371 310.263C586.619 305.213 583.911 306.126 583.911 306.126C583.911 306.126 585.996 293.242 578.204 290.72C570.407 288.203 557.692 295.609 557.692 295.609Z" fill="#FECECC"/>
<path opacity="0.1" d="M573.677 312.922C573.796 313.736 573.026 314.566 571.957 314.774C570.888 314.982 569.925 314.49 569.806 313.674C569.687 312.861 570.457 312.03 571.526 311.822C572.595 311.616 573.558 312.108 573.677 312.922Z" fill="#201135"/>
<path opacity="0.1" d="M561.567 313C561.686 313.814 560.916 314.644 559.847 314.85C558.778 315.058 557.815 314.566 557.696 313.75C557.577 312.936 558.347 312.106 559.416 311.9C560.483 311.692 561.446 312.184 561.567 313Z" fill="#201135"/>
<path d="M562.08 305.341C561.977 305.341 561.877 305.279 561.821 305.168C561.772 305.071 560.617 302.871 557.781 304.319C557.629 304.397 557.452 304.317 557.387 304.144C557.319 303.971 557.387 303.765 557.539 303.69C560.882 301.982 562.324 304.799 562.339 304.825C562.421 304.991 562.371 305.201 562.228 305.296C562.181 305.327 562.129 305.341 562.08 305.341Z" fill="#000141"/>
<path d="M567.877 305.402C567.84 305.402 567.803 305.395 567.766 305.379C567.613 305.308 567.537 305.109 567.598 304.932C567.608 304.901 568.696 301.894 572.626 302.864C572.788 302.904 572.891 303.086 572.856 303.273C572.821 303.458 572.665 303.578 572.501 303.538C569.057 302.687 568.163 305.161 568.154 305.187C568.107 305.319 567.996 305.402 567.877 305.402Z" fill="#000141"/>
<path d="M564.473 314.024C564.37 314.024 564.268 314.008 564.167 313.975C563.533 313.762 563.266 312.939 563.254 312.905C563.221 312.804 563.233 312.69 563.285 312.598C564.358 310.701 564.073 308.139 564.069 308.113C564.046 307.924 564.161 307.751 564.325 307.725C564.493 307.697 564.639 307.832 564.662 308.021C564.676 308.132 564.963 310.727 563.874 312.811C563.96 312.991 564.12 313.241 564.335 313.315C564.536 313.381 564.783 313.289 565.066 313.04C565.197 312.924 565.384 312.953 565.484 313.104C565.585 313.255 565.56 313.471 565.429 313.587C565.101 313.878 564.779 314.024 564.473 314.024Z" fill="#000141"/>
<path d="M560.637 318.511C560.637 318.511 564.046 320.293 567.865 318.244C568.731 320.075 564.206 324.837 560.637 318.511Z" fill="#FCFAF7"/>
<path d="M561.173 308.118C561.173 309.192 560.656 310.062 560.02 310.062C559.383 310.062 558.866 309.192 558.866 308.118C558.866 307.044 559.383 306.176 560.02 306.176C560.656 306.176 561.173 307.046 561.173 308.118Z" fill="#000141"/>
<path d="M571.553 308.118C571.553 309.192 571.037 310.062 570.399 310.062C569.763 310.062 569.246 309.192 569.246 308.118C569.246 307.044 569.763 306.176 570.399 306.176C571.037 306.176 571.553 307.046 571.553 308.118Z" fill="#000141"/>
<path opacity="0.1" d="M565.058 323.391C564.742 323.391 564.536 323.337 564.516 323.332C564.436 323.311 564.387 323.219 564.405 323.126C564.423 323.034 564.506 322.977 564.586 322.999C564.598 323.003 565.909 323.339 567.099 322.15C567.163 322.09 567.257 322.098 567.311 322.168C567.364 322.239 567.358 322.348 567.296 322.412C566.467 323.235 565.599 323.391 565.058 323.391Z" fill="#201135"/>
<path opacity="0.1" d="M583.395 308.177C583.395 308.177 585.138 307.231 585.48 308.65C585.823 310.069 584.729 313.653 583.055 314.481C583.055 314.481 586.096 311.094 585.105 309.043C584.114 306.994 583.498 309.161 583.395 308.177Z" fill="#201135"/>
<path d="M576.925 334.173C576.925 334.173 579.531 336.941 578.122 341.191C576.925 344.799 575.376 347.971 570.997 347.096C566.617 346.22 566.461 341.191 566.461 341.191C566.461 341.191 562.677 346.977 559.519 343.938C554.155 338.772 564.307 333.773 564.307 333.773C564.307 333.773 564.159 336.711 568 338.026C571.842 339.344 576.925 334.173 576.925 334.173Z" fill="#A0C5FF"/>
<path d="M574.021 292.816C574.021 292.816 570.882 299.404 567.512 299.122C564.142 298.841 563.826 298.119 563.826 298.119C563.826 298.119 561.873 301.568 556.884 301.286C551.895 301.005 551.487 297.059 551.487 297.059C551.487 297.059 547.787 295.721 548.875 290.933C549.962 286.145 553.463 287.638 553.463 287.638C553.463 287.638 551.598 284.719 555.175 281.521C558.754 278.32 562.22 284.061 562.22 284.061C562.22 284.061 563.178 282.403 568.111 280.551C573.045 278.696 576.427 284.816 576.427 284.816C576.427 284.816 583.25 282.275 584.639 289.805C584.639 289.805 589.211 292.91 587.171 297.523C587.171 297.523 590.623 306.746 583.533 306.793C583.533 306.793 582.353 311.439 579.494 311.165C576.636 310.89 578.286 306.315 577.666 304.508C577.042 302.699 572.47 301.1 574.021 292.816Z" fill="#000141"/>
<path d="M601.58 380.664C601.58 380.664 610.223 408.377 606.088 413.326H572.047C572.047 413.326 586.037 407.902 586.386 401.825C586.734 395.748 581.662 386.53 581.662 386.53L601.58 380.664Z" fill="#FECECC"/>
<path d="M579.486 391.287C579.486 391.287 595.423 396.767 604.075 383.985C604.075 383.985 600.112 352.335 583.822 338.649C574.099 341.274 579.486 391.287 579.486 391.287Z" fill="#A0C5FF"/>
<path opacity="0.1" d="M524.056 212.757H372.711C368.638 212.757 365.336 216.568 365.342 221.264L365.436 308.324C365.44 313.012 368.74 316.808 372.805 316.808H500.82L516.124 322.843L519.328 316.808H524.058C534.058 316.808 542.164 307.465 542.164 295.938V233.63C542.162 222.103 534.056 212.757 524.056 212.757Z" fill="#000141"/>
<path d="M516.124 308.47V322.843L490.522 310.202L516.124 308.47Z" fill="white"/>
<path d="M375.799 209.666H520.848C530.849 209.666 538.954 219.009 538.954 230.536V292.839C538.954 304.366 530.849 313.71 520.848 313.71H375.799C365.799 313.71 357.693 304.366 357.693 292.839V230.536C357.693 219.009 365.799 209.666 375.799 209.666Z" fill="white"/>
<path d="M383.915 258.765C378.535 258.765 374.174 263.792 374.174 269.994C374.174 276.196 378.535 281.223 383.915 281.223C389.296 281.223 393.657 276.196 393.657 269.994C393.657 263.792 389.296 258.765 383.915 258.765ZM383.915 279.373C379.419 279.373 375.766 275.174 375.766 269.992C375.766 264.809 379.417 260.61 383.915 260.61C388.412 260.61 392.054 264.809 392.054 269.992C392.054 275.174 388.412 279.373 383.915 279.373Z" fill="#A0C5FF"/>
<path d="M385.194 269.992C385.194 270.808 384.622 271.468 383.914 271.468C383.206 271.468 382.631 270.808 382.631 269.992C382.631 269.176 383.206 268.516 383.914 268.516C384.622 268.516 385.194 269.176 385.194 269.992Z" fill="#A0C5FF"/>
<path d="M383.912 262.039C383.458 262.039 383.089 262.462 383.089 262.988V269.571C383.089 270.093 383.456 270.519 383.912 270.519C384.365 270.519 384.734 270.096 384.734 269.571V262.988C384.734 262.462 384.365 262.039 383.912 262.039Z" fill="#A0C5FF"/>
<path d="M388.72 264.752C388.4 264.383 387.878 264.383 387.556 264.752L383.518 269.407C383.197 269.776 383.197 270.377 383.518 270.749C383.838 271.118 384.359 271.118 384.681 270.749L388.72 266.093C389.04 265.722 389.04 265.121 388.72 264.752Z" fill="#A0C5FF"/>
<path d="M430.604 261.37H404.975C404.345 261.37 403.76 261.866 403.659 262.583C403.53 263.498 404.139 264.286 404.907 264.286H430.606C431.305 264.286 431.872 263.633 431.872 262.827C431.868 262.022 431.301 261.37 430.604 261.37Z" fill="#A0C5FF"/>
<path d="M479.551 261.37H434.854C434.154 261.37 433.588 262.022 433.588 262.829C433.588 263.636 434.154 264.289 434.854 264.289H479.619C480.389 264.289 480.996 263.498 480.867 262.585C480.766 261.866 480.181 261.37 479.551 261.37Z" fill="#A0C5FF"/>
<path d="M441.65 268.532H404.973C404.343 268.532 403.758 269.029 403.655 269.746C403.526 270.659 404.135 271.451 404.903 271.451H441.648C442.348 271.451 442.914 270.798 442.914 269.992C442.916 269.187 442.35 268.532 441.65 268.532Z" fill="#A0C5FF"/>
<path d="M441.65 275.697H404.973C404.343 275.697 403.758 276.194 403.655 276.911C403.526 277.826 404.135 278.616 404.903 278.616H441.648C442.348 278.616 442.914 277.963 442.914 277.157C442.916 276.35 442.35 275.697 441.65 275.697Z" fill="#A0C5FF"/>
<path d="M479.551 268.532H445.902C445.203 268.532 444.636 269.185 444.636 269.992C444.636 270.798 445.203 271.451 445.902 271.451H479.619C480.389 271.451 480.996 270.661 480.867 269.746C480.766 269.029 480.181 268.532 479.551 268.532Z" fill="#A0C5FF"/>
<path d="M360.899 241.462V230.536C360.899 221.065 367.583 213.361 375.797 213.361H520.846C529.061 213.361 535.745 221.065 535.745 230.536V241.462H360.899Z" fill="#5D74E4"/>
<path d="M521.735 252.677H498.314C494.011 252.677 490.522 256.698 490.522 261.658V288.473C490.522 293.433 494.011 297.454 498.314 297.454H521.735C526.038 297.454 529.527 293.433 529.527 288.473V261.658C529.527 256.698 526.038 252.677 521.735 252.677Z" fill="#E7F0FE"/>
<path d="M528.148 266.361V261.658C528.148 257.582 525.271 254.266 521.735 254.266H498.314C494.778 254.266 491.901 257.582 491.901 261.658V266.361H528.148Z" fill="#A0C5FF"/>
<path d="M503.323 261.838L503.032 262.871H502.073L503.321 258.883H504.425L505.673 262.871H504.69L504.398 261.838H503.323ZM503.545 261.029H504.187L503.867 259.804L503.545 261.029Z" fill="white"/>
<path d="M509.077 260.18C509.077 260.965 508.622 261.377 508.119 261.445C507.934 261.469 507.793 261.474 507.577 261.474H507.175V262.872H506.272V258.884H507.575C507.791 258.884 507.93 258.888 508.117 258.912C508.622 258.983 509.077 259.392 509.077 260.18ZM508.135 260.18C508.135 259.879 508 259.723 507.77 259.7C507.704 259.695 507.624 259.695 507.53 259.695H507.179V260.667H507.53C507.624 260.667 507.707 260.667 507.77 260.662C508 260.636 508.135 260.48 508.135 260.18Z" fill="white"/>
<path d="M512.736 262.872H511.753C511.673 262.588 511.622 262.358 511.593 262.075C511.548 261.635 511.398 261.381 511.166 261.363C511.066 261.355 510.982 261.355 510.881 261.355H510.68V262.869H509.777V258.881H511.15C511.365 258.881 511.507 258.886 511.692 258.91C512.192 258.978 512.63 259.262 512.63 259.967C512.63 260.471 512.394 260.804 511.932 260.96C512.293 261.112 512.424 261.417 512.474 261.897C512.521 262.354 512.601 262.635 512.736 262.872ZM511.006 260.608C511.101 260.608 511.183 260.608 511.246 260.603C511.476 260.58 511.688 260.487 511.688 260.154C511.688 259.82 511.503 259.726 511.271 259.702C511.205 259.697 511.125 259.697 511.031 259.697H510.68V260.61H511.006V260.608Z" fill="white"/>
<path d="M513.473 262.872V258.884H514.376V262.872H513.473Z" fill="white"/>
<path d="M517.975 262.872H515.324V258.884H516.227V261.994H517.977V262.872H517.975Z" fill="white"/>
<path d="M508.15 284.222V287.311H497.912V285.592L502.065 281.093C504.035 278.952 504.706 277.895 504.706 276.44C504.706 275.293 504.152 274.654 503.214 274.654C502.219 274.654 501.722 275.382 501.587 276.97L501.569 277.19H498.125L498.144 276.97C498.431 273.618 500.267 271.742 503.502 271.742C506.582 271.742 508.306 273.44 508.306 276.286C508.306 278.072 507.598 279.442 505.053 282.264L503.292 284.227H508.15V284.222Z" fill="#A0C5FF"/>
<path d="M522.137 282.789C522.137 285.701 520.071 287.619 516.74 287.619C513.391 287.619 511.439 285.743 511.171 282.701L511.152 282.481H514.596L514.635 282.701C514.825 283.761 515.476 284.71 516.607 284.71C517.793 284.71 518.54 283.938 518.54 282.9C518.54 281.599 517.717 280.937 516.34 280.87L515.823 280.849V278.29L516.34 278.245C517.602 278.134 518.234 277.341 518.234 276.303C518.234 275.309 517.717 274.692 516.761 274.692C515.747 274.692 515.326 275.64 515.248 276.634L515.23 276.854H511.784L511.803 276.634C512.032 274.075 513.678 271.78 517.103 271.78C520.337 271.78 521.829 273.677 521.829 275.839C521.829 277.625 521.045 278.817 519.322 279.302C521.199 279.721 522.137 280.825 522.137 282.789Z" fill="#A0C5FF"/>
<path d="M270.572 123.043C268.454 138.953 269.148 148.649 270.324 156.37C272.374 169.978 275.914 177.597 268.267 202.522C256.271 241.597 221.836 212.869 191.481 246.557C158.088 283.661 126.438 298.81 99.9575 299.035C68.8328 299.307 44.8105 278.9 33.3596 249.171C12.1754 194.082 31.5332 177.316 73.8195 161.406C116.081 145.498 97.0147 100.139 119.492 83.7863C141.973 67.4648 169.283 72.0325 179.983 61.6127C190.678 51.1929 223.276 36.9222 252.731 50.4975C277.34 61.7972 276.39 79.1737 270.572 123.043Z" fill="#000141"/>
<path opacity="0.5" d="M268.268 202.522C256.271 241.597 221.836 212.869 191.481 246.557C158.088 283.661 126.438 298.81 99.9576 299.034C100.052 298.247 100.122 297.461 100.22 296.705C103.182 271.919 109.486 246.056 119.354 223.754C128.973 201.997 143.327 184.587 160.161 170.033C168.634 162.674 177.547 156.025 186.365 149.241C191.013 145.65 195.751 142.196 200.82 139.407C205.649 136.775 211.081 134.946 215.304 131.029C222.109 124.716 224.262 115.055 225.132 105.489C225.891 97.0423 226.039 88.1766 231.118 81.9342C243.638 79.7083 243.782 101.454 244.537 111.23C245.144 119.183 246.269 127.15 248.341 134.799C250.97 144.484 256.263 151.58 264.724 154.792C266.556 155.481 268.422 156.013 270.32 156.365C272.374 169.978 275.916 177.595 268.268 202.522Z" fill="black"/>
<path d="M259.392 184.819L257.707 155.705C257.707 155.705 303.696 168.254 318.986 282.219C324.629 324.295 313.306 341.196 295.542 344.489C277.777 347.784 233.045 275.047 259.392 184.819Z" fill="#5D74E4"/>
<path d="M340.669 130.71C340.613 131.166 340.527 131.571 340.435 131.88C340.414 131.944 340.398 132.001 340.379 132.051C339.918 133.361 339.401 134.639 338.888 135.802C337.515 138.937 336.185 141.278 336.185 141.278C336.185 141.278 335.824 161.713 334.927 164.173C333.205 166.255 323.646 163.525 323.646 163.525C322.351 161.51 324.906 141.16 324.691 137.132C324.48 133.099 325.713 128.529 325.713 128.529C325.713 128.529 325.955 107.701 330.039 107.774C331.855 107.805 331.077 118.319 331.176 122.357C331.178 122.39 331.176 122.423 331.178 122.457C331.182 122.447 332.43 121.29 333.69 122.144C334.307 122.558 334.486 123.081 334.486 123.081C334.486 123.081 335.38 122.703 336.033 122.93C336.69 123.157 337.574 123.916 337.56 124.294C337.572 124.294 338.348 123.911 339.046 124.493C339.743 125.07 339.955 126.539 339.955 126.539H339.946C340.037 126.688 340.121 126.837 340.195 126.991C340.755 128.169 340.802 129.6 340.669 130.71Z" fill="#FECECC"/>
<path opacity="0.2" d="M340.669 130.71C340.55 130.558 340.41 130.433 340.238 130.357C339.472 130.021 338.978 130.783 338.701 131.433C338.539 131.814 338.43 132.242 338.227 132.6C338.056 132.914 337.753 133.17 337.474 133.359C335.099 135.024 330.414 133.612 330.377 130.066C330.361 128.614 330.459 127.105 330.624 125.676C330.761 124.481 330.835 123.583 331.178 122.457C331.182 122.447 332.43 121.29 333.69 122.144C334.307 122.558 334.486 123.081 334.486 123.081C334.486 123.081 335.38 122.703 336.033 122.93C336.69 123.157 337.574 123.916 337.56 124.295C337.572 124.295 338.348 123.911 339.046 124.493C339.743 125.07 339.955 126.539 339.955 126.539H339.946C340.037 126.688 340.121 126.837 340.195 126.991C340.755 128.169 340.802 129.6 340.669 130.71Z" fill="white"/>
<path opacity="0.1" d="M338.947 130.729C338.249 134.31 336.554 135.095 335.803 135.265C333.798 134.705 331.941 133.792 331.063 132.831C330.449 132.162 330.25 130.629 330.277 128.893C330.261 128.988 330.244 129.082 330.228 129.179C329.981 130.773 329.774 132.614 330.4 134.13C331.018 135.627 332.391 136.306 333.766 136.368C334.87 136.417 335.976 136.148 337.033 135.739H337.035C337.037 135.739 337.039 135.736 337.041 135.734C337.139 135.696 337.238 135.658 337.336 135.618C337.31 135.613 337.283 135.608 337.256 135.601C338.898 134.506 338.947 130.729 338.947 130.729Z" fill="#5D74E4"/>
<path d="M335.758 134.856C336.167 133.789 336.417 132.914 336.673 131.798C336.928 130.658 337.102 129.477 337.039 128.304C337.03 129.48 336.788 130.624 336.47 131.729C336.146 132.829 335.307 134.849 335.307 134.849C334.962 134.842 333.823 134.359 333.341 134.121C333.316 134.109 333.294 134.097 333.269 134.085C333.603 132.961 333.899 131.833 334.149 130.686C334.398 129.527 334.617 128.347 334.658 127.152C334.547 128.339 334.26 129.489 333.946 130.62C333.632 131.727 333.273 132.82 332.883 133.889C332.559 133.718 332.239 133.543 331.943 133.326C331.129 132.725 330.765 132.233 330.509 130.461C330.423 129.867 330.406 129.257 330.396 128.647C330.373 128.037 330.386 127.426 330.398 126.811C330.199 128.02 330.115 129.255 330.187 130.499C330.226 131.121 330.308 131.75 330.54 132.356C330.607 132.503 330.661 132.659 330.759 132.791L330.897 132.995L331.053 133.165C331.155 133.283 331.264 133.383 331.379 133.475C331.49 133.574 331.605 133.664 331.724 133.742C332.67 134.39 333.692 134.797 334.726 135.114C335.76 135.429 336.768 135.365 337.695 133.905C337.094 134.731 335.978 134.93 335.758 134.856Z" fill="#EAB2B2"/>
<path opacity="0.1" d="M336.086 141.077C334.767 142.279 332.048 142.106 329.581 141.657C327.706 141.316 326.199 140.029 325.13 138.755C325.264 139.124 325.407 139.493 325.578 139.85C326.021 140.782 327.761 144.943 330.224 145.132C334.073 145.427 335.311 141.678 336.066 141.255C336.072 141.196 336.08 141.137 336.086 141.077Z" fill="#5D74E4"/>
<path opacity="0.1" d="M329.943 127.729C329.943 127.729 330.332 128.971 329.38 129.347C328.428 129.721 326.957 128.195 326.575 131.294C326.193 134.39 324.954 137.955 324.664 135.424C324.377 132.893 324.012 128.384 325.518 127.717C327.026 127.045 329.943 127.729 329.943 127.729Z" fill="#5D74E4"/>
<path d="M324.691 137.132C324.691 137.132 321.875 131.003 321.806 128.912C321.736 126.821 323.942 124.254 325.298 124.063C326.552 123.888 329.28 125.733 329.809 126.677C330.338 127.62 330.796 128.952 328.268 128.751C325.738 128.55 325.594 129.326 325.594 129.326L324.691 137.132Z" fill="#EAB2B2"/>
<path opacity="0.2" d="M328.188 126.83C328.188 126.83 329.561 127.996 329.873 127.866C330.185 127.736 329.628 126.438 329.105 126.199C328.582 125.96 328.188 126.83 328.188 126.83Z" fill="white"/>
<path d="M322.196 151.644C322.194 154.068 297.078 259.52 295.676 267.231C282.805 338.034 319.901 339.973 319.901 339.973C320.447 339.763 320.989 339.543 321.484 339.257C361.412 316.279 337.73 150.816 337.73 150.816C337.73 150.816 322.239 149.139 322.196 151.644Z" fill="#5D74E4"/>
<g opacity="0.1">
<path d="M328.366 316.939C324.943 316.186 322.011 313.996 320.726 310.15C319.407 306.202 319.667 301.717 320.107 297.601C320.624 292.757 321.549 287.983 322.185 283.16C322.715 279.132 323.302 274.599 322.109 270.652C320.119 264.061 316.382 258.418 313.09 252.646C309.637 246.586 306.669 240.291 305.725 233.032C305.409 230.6 305.263 228.154 305.198 225.703C300.353 246.455 296.222 264.234 295.676 267.231C282.805 338.034 319.901 339.973 319.901 339.973C320.447 339.763 320.989 339.543 321.484 339.256C328.272 335.349 333.22 327.316 336.76 316.685C334.022 317.452 331.139 317.549 328.366 316.939Z" fill="#000141"/>
</g>
<path d="M150.939 414.939H298.98C287.256 332.342 304.315 162.459 239.712 146.922C205.501 138.695 142.125 192.772 156.915 264.802C160.972 314.996 167.341 364.555 150.939 414.939Z" fill="#C7DBFF"/>
<path d="M271.305 286.682C271.305 288.66 271.391 290.737 271.477 292.712C271.391 292.811 271.477 292.811 271.477 292.811C271.621 299.325 271.861 306.126 272.165 312.787C272.242 315.325 272.269 317.759 272.507 320.205C272.651 325.09 272.891 330.53 273.106 335.434C274.57 373.546 278.824 391.559 283.578 414.939H313.261C304.063 143.06 261.073 159.249 256.242 155.53C255.401 182.572 269.961 248.248 271.305 286.486C271.221 286.583 271.221 286.583 271.305 286.682Z" fill="#C7DBFF"/>
<path d="M212.435 413.323C214.92 400.881 228.546 390.44 229.189 365.747C229.275 365.648 229.275 365.548 229.189 365.449C229.32 362.984 229.263 360.115 229.275 357.636C229.275 357.539 229.275 357.539 229.189 357.442C228.99 314.093 223.794 270.157 217.178 227.7C217.094 227.6 217.094 227.6 217.094 227.6C213.535 210.479 211.019 152.949 214.077 150.049C207.799 155.999 196.151 176.717 190.947 183.338C193.748 190.898 202.679 205.488 205.597 213.358L181.918 267.65C215.536 324.435 212.435 413.323 212.435 413.323Z" fill="#5D74E4"/>
<path d="M262.811 215.868C265.62 251.129 247.945 343.1 266.148 412.739C266.148 412.739 269.288 324.435 282.374 269.31L263.698 222.735C280.154 213.209 275.181 190.903 277.166 183.343C271.245 176.722 258.387 154.563 250.794 151.719C257.646 154.283 259.589 175.416 262.811 215.868Z" fill="#5D74E4"/>
<path d="M212.435 154.123C211.358 159.63 216.591 183.75 228.92 194.853C233.929 199.65 239.554 202.404 245.025 201.337C263.287 197.961 254.58 163.23 251.422 153.103C251.344 152.748 251.19 152.391 251.114 152.126C248.185 143.511 249.265 114.021 249.265 114.021L230.539 109.492C230.539 109.492 231.694 114.644 226.917 129.477C222.06 144.311 214.052 146.397 212.435 154.123Z" fill="#FECECC"/>
<path opacity="0.5" d="M228.92 194.853C233.929 199.65 239.554 202.404 245.025 201.337C263.287 197.961 254.58 163.23 251.422 153.103C251.344 152.748 251.19 152.391 251.114 152.126C248.185 143.511 249.265 114.021 249.265 114.021L231.694 109.846C232.312 110.379 232.696 111.268 232.774 112.422C233.16 124.235 242.021 132.496 245.719 142.977C248.569 151.062 250.418 162.163 246.104 170.068C244.871 172.379 236.24 184.994 228.92 194.853Z" fill="#EAB2B2"/>
<path d="M262.378 124.855C255.7 135.618 231.06 126.307 228.276 112.434C227.41 108.068 225.922 100.56 225.922 100.56C225.922 100.56 219.997 97.5697 220.841 90.5775C221.547 85.1654 225.429 88.5858 225.429 88.5858L225.409 82.5752L261.99 77.3736C261.99 77.3736 262.563 80.4297 263.31 85.137C263.671 87.5616 264.009 90.4923 264.387 93.5816C265.573 104.825 266.094 118.932 262.378 124.855Z" fill="#FECECC"/>
<path opacity="0.5" d="M264.387 93.5769C259.033 94.814 252.382 95.8382 248.939 95.5213C242.875 94.9181 225.495 87.4244 225.495 87.4244L261.022 75.0153C263.244 78.1991 264.009 90.4876 264.387 93.5769Z" fill="#EAB2B2"/>
<path opacity="0.1" d="M239.714 108.507C239.665 109.756 240.951 110.84 242.589 110.927C244.227 111.015 245.595 110.076 245.647 108.827C245.698 107.58 244.411 106.497 242.772 106.407C241.134 106.319 239.765 107.261 239.714 108.507Z" fill="#201135"/>
<path opacity="0.1" d="M257.91 106.09C257.859 107.337 259.146 108.42 260.785 108.507C262.423 108.595 263.792 107.656 263.843 106.407C263.894 105.16 262.606 104.077 260.968 103.989C259.328 103.9 257.962 104.841 257.91 106.09Z" fill="#201135"/>
<path d="M255.934 94.6981C256.09 94.6768 256.23 94.5633 256.295 94.3858C256.353 94.2321 257.744 90.6839 262.228 92.264C262.47 92.3468 262.72 92.1931 262.792 91.9187C262.864 91.6443 262.731 91.3533 262.493 91.2682C257.206 89.4019 255.481 93.9341 255.464 93.979C255.368 94.2439 255.474 94.5491 255.704 94.6626C255.778 94.6981 255.858 94.7099 255.934 94.6981Z" fill="#000141"/>
<path d="M247.239 96.0039C247.294 95.9968 247.35 95.9755 247.401 95.9447C247.621 95.8075 247.703 95.4905 247.582 95.2398C247.561 95.1949 245.456 90.911 239.708 93.189C239.472 93.2812 239.347 93.5793 239.429 93.8513C239.511 94.1233 239.763 94.27 240.003 94.1754C245.039 92.1766 246.771 95.7034 246.79 95.7389C246.878 95.9281 247.061 96.0299 247.239 96.0039Z" fill="#000141"/>
<path d="M253.708 108.238C253.864 108.217 254.013 108.169 254.157 108.098C255.074 107.647 255.347 106.355 255.36 106.301C255.392 106.14 255.357 105.972 255.265 105.846C253.357 103.223 253.381 99.3154 253.381 99.2776C253.385 98.989 253.184 98.7525 252.936 98.7501C252.679 98.743 252.48 98.9772 252.478 99.2634C252.476 99.4361 252.452 103.389 254.416 106.291C254.315 106.58 254.114 106.991 253.8 107.143C253.508 107.282 253.123 107.199 252.661 106.882C252.445 106.736 252.168 106.819 252.043 107.067C251.916 107.315 251.988 107.635 252.203 107.781C252.743 108.148 253.248 108.302 253.708 108.238Z" fill="#000141"/>
<path d="M260.174 114.173C260.174 114.173 255.337 117.56 249.279 115.284C248.267 118.211 255.813 124.413 260.174 114.173Z" fill="#FCFAF7"/>
<path d="M257.732 98.6791C257.9 100.29 258.813 101.489 259.77 101.354C260.726 101.222 261.364 99.8051 261.196 98.1942C261.027 96.5833 260.114 95.3841 259.158 95.5189C258.202 95.6537 257.563 97.0683 257.732 98.6791Z" fill="#000141"/>
<path d="M242.148 100.851C242.316 102.462 243.229 103.661 244.186 103.526C245.142 103.393 245.78 101.979 245.612 100.366C245.444 98.7549 244.531 97.5556 243.574 97.6904C242.616 97.8252 241.978 99.2398 242.148 100.851Z" fill="#000141"/>
<path opacity="0.1" d="M254.305 122.423C254.779 122.357 255.079 122.234 255.109 122.22C255.226 122.17 255.286 122.021 255.243 121.887C255.2 121.752 255.068 121.683 254.953 121.73C254.935 121.74 253.018 122.518 251.046 120.981C250.939 120.905 250.802 120.933 250.732 121.051C250.662 121.17 250.691 121.333 250.794 121.413C252.164 122.483 253.492 122.537 254.305 122.423Z" fill="#201135"/>
<path opacity="0.5" d="M224.565 89.972C224.565 89.972 223.24 88.328 222.603 89.5793C221.971 90.833 222.39 95.5946 224.434 97.1913C224.434 97.1913 222.335 92.9193 222.934 91.4551C223.531 89.9885 225.144 91.2044 224.565 89.972Z" fill="#EAB2B2"/>
<path d="M262.723 85.9483C262.08 82.4333 260.985 80.3446 257.473 79.4623C256.802 79.292 260.695 82.4546 261.011 87.0672C259.113 88.5527 256.868 89.8158 254.512 90.6177C245.815 93.61 224.649 87.1145 224.649 87.1145C221.936 53.2556 263.556 62.133 267.919 74.1566C268.879 76.787 266.051 82.3623 262.723 85.9483Z" fill="#000141"/>
<path d="M251.682 396.297C269.525 340.231 277.607 281.128 275.103 217.022C274.999 214.408 273.357 212.537 271.467 212.821C245.797 216.738 218.288 219.839 188.786 222.072C187.374 222.179 186.174 224.062 186.055 226.278C183.237 281.107 172.349 332.811 153.59 382.598C152.804 384.685 153.381 386.622 154.908 386.911C186.976 393.004 217.483 397.385 246.431 400.209C248.559 400.424 250.935 398.657 251.682 396.297Z" fill="white"/>
<g opacity="0.2">
<path opacity="0.1" d="M248.664 380.268C262.784 331.356 269.542 279.997 268.403 224.916C244.713 227.929 219.523 230.245 192.737 231.825C189.923 283.07 180.024 331.564 163.231 378.307C181.908 381.52 200.03 384.167 217.6 386.281C228.206 384.339 238.557 382.333 248.664 380.268Z" fill="#5D74E4"/>
</g>
<path d="M247.945 378.005C261.857 329.149 268.436 277.814 267.145 222.714C243.595 225.781 218.553 228.161 191.92 229.824C189.248 281.059 179.519 329.518 162.925 376.19C181.52 379.353 199.562 381.965 217.054 384.046C227.6 382.095 237.896 380.079 247.945 378.005Z" fill="#A0C5FF"/>
<g opacity="0.1">
<path d="M267.145 222.714C262.029 223.381 256.808 224 251.549 224.601C256.909 238.134 260.102 253.041 255.969 266.585C252.698 277.301 245.875 283.605 236.753 287.004C234.159 287.971 230.558 289.052 228.789 291.699C228.745 291.763 228.723 291.78 228.688 291.829C228.688 291.832 228.69 291.832 228.69 291.834C228.735 292.243 229.423 293.339 229.536 293.58C231.75 298.28 233.404 303.207 233.933 308.553C234.867 317.984 231.19 326.145 224.555 331.566C215.612 338.876 203.888 344.664 192.954 346.019C186.352 346.838 179.683 345.78 173.209 343.786C170.128 354.684 166.73 365.492 162.925 376.19C181.52 379.355 199.562 381.965 217.057 384.046C227.602 382.095 237.898 380.079 247.947 378.005C261.857 329.149 268.438 277.814 267.145 222.714Z" fill="#5D74E4"/>
</g>
<path d="M247.945 378.005C246.16 375.512 244.362 372.99 242.548 370.433C234.307 374.942 225.813 379.481 217.055 384.046C227.6 382.095 237.896 380.079 247.945 378.005Z" fill="#A0C5FF"/>
<path opacity="0.25" d="M153.239 352.311V371.046C153.239 371.046 200.752 387.611 229.817 361.678C258.881 335.746 258.017 324.094 258.017 324.094C258.017 324.094 272.308 330.764 271.607 323.242C270.905 315.723 255.963 311.027 249.924 312.581C243.884 314.138 153.239 352.311 153.239 352.311Z" fill="#000141"/>
<path d="M257.736 308.697C254.502 309.565 240.406 309.206 238.978 310.921C238.978 310.921 238.3 319.876 240.262 321.397C242.401 321.979 258.571 319.876 258.571 319.876C258.571 319.876 260.488 321.88 264.67 322.94C265.785 323.223 266.913 323.434 267.989 323.526V323.531C267.993 323.531 267.993 323.531 267.999 323.536C268.052 323.543 268.327 323.602 268.729 323.675H268.734C270.186 323.94 273.308 324.427 273.808 323.765C274.441 322.937 274.709 321.75 274.1 321.043C274.127 321.007 274.149 320.967 274.176 320.931C274.555 320.879 275.51 320.657 275.891 319.789C276.267 318.944 275.811 318.261 275.588 317.993C275.6 317.949 275.616 317.904 275.629 317.861C275.945 317.837 276.636 317.726 276.815 317.208C277.041 316.539 277.229 315.375 276.353 314.814C276.357 314.8 276.357 314.781 276.361 314.767C276.546 314.658 277.26 314.171 277.158 312.988C277.041 311.633 276.491 311.444 276.491 311.444C276.491 311.444 277.203 310.322 277.049 309.376C276.897 308.425 276.158 307.261 274.287 306.975L274.27 306.978C274.09 306.897 273.897 306.824 273.689 306.788C272.844 306.63 272.011 306.542 271.219 306.507C271.057 306.502 270.896 306.5 270.734 306.493C267.65 306.426 265.29 307.089 265.29 307.089C265.29 307.089 269.68 302.022 267.995 299.224C266.316 296.428 260.974 307.827 257.736 308.697Z" fill="#FECECC"/>
<path opacity="0.2" d="M271.221 306.509C272.501 312.421 269.343 320.461 267.991 323.524C267.987 323.524 267.987 323.529 267.987 323.529H267.991C267.995 323.529 267.995 323.529 268.001 323.533C268.216 323.552 268.463 323.602 268.731 323.673H268.736C270.189 323.938 273.31 324.425 273.811 323.763C274.443 322.935 274.711 321.747 274.102 321.04C274.129 321.005 274.151 320.964 274.178 320.929C274.558 320.877 275.512 320.655 275.893 319.787C276.269 318.942 275.813 318.258 275.59 317.991C275.602 317.946 275.618 317.901 275.631 317.859C275.947 317.835 276.638 317.724 276.817 317.206C277.043 316.536 277.231 315.373 276.355 314.812C276.359 314.798 276.359 314.779 276.363 314.765C276.548 314.656 277.262 314.169 277.16 312.986C277.043 311.63 276.493 311.441 276.493 311.441C276.493 311.441 277.205 310.32 277.051 309.374C276.899 308.423 276.16 307.259 274.289 306.973L274.272 306.975C274.092 306.895 273.899 306.822 273.692 306.786C272.844 306.632 272.011 306.545 271.221 306.509Z" fill="white"/>
<path d="M273.966 320.683C273.336 320.253 272.686 319.902 272.011 319.611C271.335 319.323 270.636 319.11 269.924 319.025C270.627 319.171 271.305 319.441 271.949 319.782C272.591 320.122 273.215 320.529 273.788 320.991L273.792 320.993C273.864 321.052 273.964 321.033 274.016 320.948C274.067 320.865 274.048 320.749 273.977 320.692C273.972 320.688 273.968 320.685 273.966 320.683Z" fill="#FF97A6"/>
<path d="M276.285 311.165C275.579 310.722 274.853 310.367 274.104 310.081C273.353 309.795 272.577 309.596 271.795 309.537C272.573 309.665 273.322 309.927 274.042 310.27C274.758 310.613 275.458 311.03 276.098 311.508L276.105 311.512C276.185 311.574 276.295 311.548 276.347 311.453C276.4 311.358 276.378 311.233 276.295 311.174C276.293 311.169 276.289 311.167 276.285 311.165Z" fill="#FF97A6"/>
<path d="M276.127 314.438C275.423 313.956 274.695 313.565 273.938 313.239C273.182 312.917 272.401 312.678 271.604 312.584C272.392 312.747 273.15 313.05 273.87 313.431C274.588 313.811 275.288 314.266 275.926 314.781L275.932 314.786C276.012 314.852 276.125 314.829 276.181 314.736C276.238 314.644 276.218 314.514 276.138 314.45C276.135 314.445 276.131 314.441 276.127 314.438Z" fill="#FF97A6"/>
<path d="M275.419 317.575C274.715 317.095 273.989 316.702 273.234 316.378C272.481 316.056 271.699 315.82 270.905 315.725C271.691 315.888 272.446 316.189 273.166 316.57C273.884 316.95 274.58 317.402 275.218 317.918L275.224 317.923C275.306 317.989 275.417 317.965 275.473 317.873C275.53 317.781 275.51 317.651 275.43 317.587C275.425 317.58 275.421 317.577 275.419 317.575Z" fill="#FF97A6"/>
<path opacity="0.2" d="M266.919 299.139C266.919 299.139 265.674 301.398 265.257 301.431C264.841 301.464 264.707 300.898 264.707 300.898C264.707 300.898 266.185 298.973 266.919 299.139Z" fill="white"/>
<path d="M188.23 167.067C188.23 167.067 110.883 236.828 128.468 334.232C132.465 356.373 177.446 325.674 173.705 315.004C150.206 247.981 188.23 167.067 188.23 167.067Z" fill="#5D74E4"/>
<path opacity="0.25" d="M171.721 308.775C164.417 283.773 165.053 257.284 168.657 234.056C168.657 234.042 168.657 234.03 168.657 234.016C168.692 230.711 168.948 227.416 169.223 224.128C167.093 226.375 165.402 229.138 163.894 231.96C162.137 235.25 160.627 238.704 159.059 242.115C158.283 243.804 157.473 245.457 156.908 247.262C156.33 249.112 155.977 251.04 155.821 252.996C155.525 256.729 155.954 260.464 156.494 264.142C157.518 271.136 159.355 278.789 156.625 285.559C155.449 288.475 153.717 291.011 152.053 293.568C150.128 296.525 148.372 299.607 146.964 302.935C144.146 309.601 142.619 317.125 143.824 324.48C146.668 321.161 149.82 318.211 153.293 315.801C158.901 311.914 165.226 309.563 171.721 308.775Z" fill="#000141"/>
<path d="M253.847 305.736C253.847 305.736 257.904 319.389 253.88 324.607C249.858 329.825 172.585 360.491 150.939 355.282C112.392 346.005 125.252 309.863 159.956 302.904C194.66 295.948 253.847 305.736 253.847 305.736Z" fill="#5D74E4"/>
<path d="M130.27 415.017H325.494C326.027 415.017 326.46 414.518 326.46 413.903C326.46 413.288 326.027 412.789 325.494 412.789H130.27C129.736 412.789 129.303 413.288 129.303 413.903C129.303 414.518 129.736 415.017 130.27 415.017Z" fill="#A0C5FF"/>
<path d="M307.174 106.719V90.6603H306.926C300.268 90.6603 294.851 84.4179 294.851 76.7444V68.5978C294.851 60.9243 300.266 54.6819 306.926 54.6819H357.084C363.741 54.6819 369.157 60.9243 369.157 68.5978V76.7444C369.157 84.4179 363.739 90.6603 357.084 90.6603H322.485L307.174 106.719ZM306.926 56.3306C301.059 56.3306 296.285 61.8326 296.285 68.5954V76.742C296.285 83.5048 301.059 89.0068 306.926 89.0068H308.606V102.982L321.929 89.0068H357.082C362.949 89.0068 367.722 83.5048 367.722 76.742V68.5954C367.722 61.8326 362.949 56.3306 357.082 56.3306H306.926Z" fill="#A0C5FF"/>
<path d="M328.153 73.234C328.29 75.687 330.125 77.5462 332.253 77.3877C334.381 77.2316 335.994 75.1145 335.857 72.6639C335.719 70.211 333.885 68.3517 331.759 68.5102C329.63 68.6663 328.015 70.781 328.153 73.234Z" fill="#A0C5FF"/>
<path d="M343.062 72.9502C343.062 75.4079 344.79 77.3996 346.922 77.3996C349.054 77.3996 350.782 75.4079 350.782 72.9502C350.782 70.4925 349.054 68.5008 346.922 68.5008C344.79 68.5008 343.062 70.4925 343.062 72.9502Z" fill="#A0C5FF"/>
<path d="M313.236 73.2341C313.371 75.6871 315.208 77.5463 317.334 77.3879C319.462 77.2317 321.075 75.1147 320.94 72.6641C320.802 70.2111 318.968 68.3519 316.84 68.5103C314.713 68.6665 313.098 70.7812 313.236 73.2341Z" fill="#A0C5FF"/>
<path opacity="0.2" d="M64.4719 144.216V154.109C64.4719 154.109 71.4287 156.45 78.726 150.052V139.157L64.4719 144.216Z" fill="#000141"/>
<path d="M58.0448 149.302C49.276 149.302 40.5073 145.456 33.8317 137.759C20.4825 122.369 20.4825 97.3261 33.8317 81.9389C47.1808 66.547 68.9088 66.547 82.258 81.9389C83.9653 83.907 83.9653 87.0932 82.258 89.0613C80.5506 91.0293 77.7843 91.0293 76.079 89.0613C71.2626 83.5096 64.8559 80.451 58.0448 80.451C51.2338 80.451 44.827 83.5096 40.0107 89.0613C30.0681 100.524 30.0681 119.173 40.0107 130.636C44.827 136.188 51.2338 139.246 58.0448 139.246C64.8559 139.246 71.2626 136.188 76.079 130.636C83.8853 121.636 85.7917 107.961 80.8235 96.607C79.7359 94.1233 80.6019 91.0932 82.7546 89.8395C84.9114 88.5716 87.536 89.5817 88.6257 92.0654C95.3013 107.313 92.7423 125.676 82.26 137.759C75.5824 145.453 66.8115 149.302 58.0448 149.302Z" fill="#A0C5FF"/>
<path d="M77.8418 87.027C88.7756 99.6301 88.7756 120.065 77.8418 132.668C66.908 145.271 49.1796 145.271 38.2459 132.668C27.3121 120.065 27.3121 99.6301 38.2459 87.027C49.1796 74.4216 66.906 74.4216 77.8418 87.027Z" fill="white"/>
<path opacity="0.54" d="M67.2075 106.22V122.246C67.2075 124.921 65.3339 127.083 63.0232 127.083H53.3905C51.0819 127.083 49.2083 124.921 49.2083 122.246V106.22C49.2083 106.047 49.2206 105.891 49.2329 105.733C49.3068 104.817 49.6187 103.945 50.1153 103.23L55.0055 96.0748H61.4123L66.3025 103.23C66.7992 103.945 67.109 104.82 67.185 105.733C67.1952 105.891 67.2075 106.05 67.2075 106.22Z" fill="#A0C5FF"/>
<path d="M67.2075 106.22V120.214H49.2083L49.2329 105.733H67.1829C67.1952 105.891 67.2075 106.05 67.2075 106.22Z" fill="#5D74E4"/>
<path d="M62.4343 90.7691V94.4971C62.4343 95.3794 61.8186 96.0914 61.0511 96.0914H55.338C54.5725 96.0914 53.9548 95.3794 53.9548 94.4971V90.7029C53.9897 89.8466 54.5951 89.1748 55.338 89.1748H61.0511C61.8186 89.1748 62.4343 89.8868 62.4343 90.7691Z" fill="#A0C5FF"/>
<path d="M59.6352 90.7029H53.9569V91.0317H59.6352V90.7029Z" fill="white"/>
<path d="M58.5742 91.7295H53.9569V92.0583H58.5742V91.7295Z" fill="white"/>
<path d="M59.6352 92.8365H53.9569V93.1653H59.6352V92.8365Z" fill="white"/>
<path d="M58.5742 93.8632H53.9569V94.2062H58.5742V93.8632Z" fill="white"/>
<path d="M64 105.733V120.214H62.9001V106.22C62.9001 106.047 62.8919 105.891 62.8837 105.733H64Z" fill="white"/>
<path opacity="0.2" d="M646.055 262.872V273.819C646.055 273.819 641.633 276.97 631.941 273.819V260.166L646.055 262.872Z" fill="#000141"/>
<path d="M638.503 268.43C629.474 268.43 620.445 264.468 613.572 256.544C599.827 240.698 599.827 214.912 613.572 199.069C627.317 183.22 649.69 183.22 663.435 199.069C665.191 201.093 665.191 204.377 663.435 206.404C661.678 208.431 658.83 208.431 657.071 206.404C652.111 200.687 645.516 197.541 638.503 197.541C631.489 197.541 624.894 200.689 619.936 206.404C609.7 218.205 609.7 237.408 619.936 249.211C624.896 254.929 631.491 258.075 638.503 258.075C645.516 258.075 652.113 254.926 657.071 249.211C665.107 239.946 667.073 225.864 661.955 214.172C660.835 211.615 661.725 208.495 663.944 207.206C666.166 205.9 668.869 206.941 669.989 209.498C676.862 225.197 674.227 244.104 663.435 256.546C656.56 264.466 647.531 268.43 638.503 268.43Z" fill="#A0C5FF"/>
<path d="M658.887 204.308C670.145 217.285 670.145 238.325 658.887 251.302C647.629 264.279 629.375 264.279 618.117 251.302C606.859 238.325 606.859 217.285 618.117 204.308C629.375 191.331 647.629 191.331 658.887 204.308Z" fill="url(#paint0_linear_47_3008)"/>
<path d="M648.926 213.959L644.102 232.523C643.328 235.503 640.603 237.218 638.013 236.324C635.427 235.43 633.97 232.272 634.744 229.289L639.569 210.728C640.344 207.747 643.07 206.032 645.655 206.927C648.243 207.818 649.702 210.979 648.926 213.959Z" fill="#5D74E4"/>
<path d="M648.926 213.959L646.554 223.085L637.196 219.854L639.569 210.728C640.344 207.747 643.07 206.032 645.655 206.927C648.243 207.818 649.702 210.979 648.926 213.959Z" fill="#A0C5FF"/>
<path opacity="0.44" d="M637.196 219.854L646.211 224.431L646.554 223.085L637.196 219.854Z" fill="#BAF1EB"/>
<path opacity="0.49" d="M646.057 208.131C646.878 208.698 647.594 209.531 648.031 210.593C648.555 211.665 648.243 213.06 648.001 214.035C647.551 216.175 647.053 218.3 646.523 220.412C645.468 224.641 644.329 228.84 643.02 232.98L643.002 233.039L642.993 233.053C642.55 233.869 641.965 234.522 641.243 234.959C640.523 235.399 639.648 235.459 638.945 235.104C639.704 235.26 640.457 235.056 641.038 234.567C641.608 234.072 642.068 233.377 642.388 232.681L642.361 232.752C643.246 228.464 644.297 224.234 645.433 220.036C646 217.935 646.597 215.844 647.241 213.772C647.601 212.696 647.859 211.814 647.576 210.787C647.33 209.793 646.743 208.892 646.057 208.131Z" fill="white"/>
<path d="M637.621 223.101V242.479C637.621 245.592 635.438 248.135 632.737 248.135C630.036 248.135 627.851 245.592 627.851 242.479V223.101C627.851 219.989 630.034 217.446 632.737 217.446C635.438 217.446 637.621 219.989 637.621 223.101Z" fill="#5D74E4"/>
<path d="M637.621 223.101V232.627H627.853V223.101C627.853 219.989 630.036 217.446 632.739 217.446C635.438 217.446 637.621 219.989 637.621 223.101Z" fill="#A0C5FF"/>
<path opacity="0.44" d="M627.853 232.627L637.627 234.03L637.621 232.627H627.853Z" fill="#BAF1EB"/>
<path opacity="0.49" d="M633.422 218.467C634.352 218.739 635.243 219.298 635.926 220.173C636.694 221.025 636.741 222.465 636.753 223.48C636.854 225.68 636.907 227.88 636.926 230.079C636.969 234.479 636.923 238.876 636.702 243.276L636.698 243.34L636.694 243.354C636.472 244.284 636.076 245.102 635.491 245.76C634.912 246.42 634.089 246.765 633.326 246.659C634.094 246.557 634.765 246.112 635.198 245.45C635.622 244.788 635.889 243.969 636.02 243.198L636.014 243.276C635.793 238.876 635.746 234.477 635.789 230.079C635.809 227.88 635.86 225.68 635.961 223.48C636.039 222.33 636.066 221.401 635.54 220.511C635.054 219.638 634.268 218.969 633.422 218.467Z" fill="white"/>
<path d="M645.785 244.859C644.96 246.366 643.423 247.016 642.011 246.628C641.845 246.593 641.689 246.543 641.524 246.467C641.329 246.387 641.122 246.259 640.935 246.127C640.724 245.973 640.541 245.798 640.369 245.609C640.242 245.471 640.133 245.33 640.035 245.173C639.156 243.875 639.019 242.032 639.835 240.54C640.644 239.061 642.154 238.392 643.548 238.744C643.714 238.78 643.87 238.829 644.034 238.905C644.256 239.004 644.471 239.118 644.683 239.272C644.867 239.406 645.058 239.565 645.204 239.735C645.333 239.872 645.44 240.014 645.538 240.171C646.454 241.474 646.607 243.352 645.785 244.859Z" fill="#5D74E4"/>
<path d="M645.54 240.17C645.54 240.17 641.688 246.545 641.524 246.47C641.329 246.389 641.122 246.261 640.935 246.129C640.724 245.975 640.541 245.8 640.369 245.611C640.242 245.474 643.548 238.746 643.548 238.746C643.714 238.782 643.87 238.832 644.034 238.907C644.256 239.007 644.471 239.12 644.682 239.274C644.867 239.409 645.058 239.567 645.204 239.738C645.335 239.872 645.442 240.014 645.54 240.17Z" fill="#A0C5FF"/>
<path opacity="0.49" d="M645.206 239.738L641.524 246.47C641.329 246.389 641.122 246.262 640.935 246.129C640.724 245.975 640.541 245.8 640.369 245.611L644.034 238.907C644.256 239.007 644.471 239.12 644.682 239.274C644.869 239.406 645.06 239.565 645.206 239.738Z" fill="white"/>
<path d="M654.264 236.218C654.572 238.437 653.585 240.525 651.965 241.512C651.783 241.639 651.598 241.741 651.391 241.824C651.147 241.937 650.859 242.013 650.586 242.063C650.274 242.12 649.977 242.129 649.677 242.115C649.456 242.108 649.254 242.077 649.047 242.025C647.28 241.637 645.819 240.019 645.518 237.824C645.218 235.65 646.164 233.571 647.74 232.568C647.923 232.44 648.107 232.338 648.315 232.256C648.596 232.135 648.883 232.036 649.193 231.979C649.466 231.932 649.761 231.901 650.022 231.92C650.244 231.927 650.445 231.958 650.652 232.012C652.456 232.369 653.958 233.999 654.264 236.218Z" fill="#5D74E4"/>
<path d="M650.652 232.012C650.652 232.012 651.598 241.741 651.391 241.824C651.147 241.937 650.859 242.013 650.587 242.063C650.275 242.12 649.977 242.129 649.677 242.115C649.456 242.108 647.74 232.568 647.74 232.568C647.923 232.44 648.108 232.338 648.315 232.256C648.596 232.135 648.883 232.036 649.193 231.979C649.466 231.932 649.762 231.901 650.022 231.92C650.244 231.927 650.447 231.958 650.652 232.012Z" fill="#A0C5FF"/>
<path opacity="0.49" d="M650.024 231.92L651.393 241.824C651.149 241.937 650.861 242.013 650.588 242.063C650.277 242.12 649.979 242.129 649.679 242.115L648.317 232.256C648.598 232.135 648.885 232.036 649.195 231.979C649.466 231.932 649.761 231.901 650.024 231.92Z" fill="white"/>
<path d="M659.218 129.934C659.864 129.934 660.388 129.331 660.388 128.585C660.388 127.84 659.864 127.237 659.218 127.237C658.572 127.237 658.048 127.84 658.048 128.585C658.048 129.331 658.574 129.934 659.218 129.934Z" fill="#A0C5FF"/>
<path d="M659.218 140.271C659.864 140.271 660.388 139.668 660.388 138.922C660.388 138.177 659.864 137.574 659.218 137.574C658.572 137.574 658.048 138.177 658.048 138.922C658.048 139.668 658.574 140.271 659.218 140.271Z" fill="#A0C5FF"/>
<path d="M659.218 150.608C659.864 150.608 660.388 150.005 660.388 149.259C660.388 148.514 659.864 147.911 659.218 147.911C658.572 147.911 658.048 148.514 658.048 149.259C658.048 150.005 658.574 150.608 659.218 150.608Z" fill="#A0C5FF"/>
<path d="M659.218 160.945C659.864 160.945 660.388 160.342 660.388 159.596C660.388 158.851 659.864 158.248 659.218 158.248C658.572 158.248 658.048 158.851 658.048 159.596C658.048 160.342 658.574 160.945 659.218 160.945Z" fill="#A0C5FF"/>
<path d="M664.266 124.529C664.913 124.529 665.436 123.926 665.436 123.18C665.436 122.435 664.913 121.832 664.266 121.832C663.62 121.832 663.096 122.435 663.096 123.18C663.096 123.926 663.622 124.529 664.266 124.529Z" fill="#A0C5FF"/>
<path d="M664.266 134.868C664.913 134.868 665.436 134.265 665.436 133.52C665.436 132.775 664.913 132.171 664.266 132.171C663.62 132.171 663.096 132.775 663.096 133.52C663.096 134.263 663.622 134.868 664.266 134.868Z" fill="#A0C5FF"/>
<path d="M664.266 145.205C664.913 145.205 665.436 144.602 665.436 143.857C665.436 143.112 664.913 142.508 664.266 142.508C663.62 142.508 663.096 143.112 663.096 143.857C663.096 144.602 663.622 145.205 664.266 145.205Z" fill="#A0C5FF"/>
<path d="M664.266 155.542C664.913 155.542 665.436 154.939 665.436 154.194C665.436 153.449 664.913 152.845 664.266 152.845C663.62 152.845 663.096 153.449 663.096 154.194C663.096 154.939 663.622 155.542 664.266 155.542Z" fill="#A0C5FF"/>
<path d="M29.4832 382.255C30.2959 382.255 30.9526 381.496 30.9526 380.562C30.9526 379.625 30.2938 378.868 29.4832 378.868C28.6727 378.868 28.0139 379.627 28.0139 380.562C28.0139 381.499 28.6706 382.255 29.4832 382.255Z" fill="#A0C5FF"/>
<path d="M29.4832 395.244C30.2959 395.244 30.9526 394.485 30.9526 393.55C30.9526 392.616 30.2938 391.857 29.4832 391.857C28.6727 391.857 28.0139 392.616 28.0139 393.55C28.0139 394.487 28.6706 395.244 29.4832 395.244Z" fill="#A0C5FF"/>
<path d="M29.4832 408.233C30.2959 408.233 30.9526 407.473 30.9526 406.539C30.9526 405.602 30.2938 404.845 29.4832 404.845C28.6727 404.845 28.0139 405.605 28.0139 406.539C28.0139 407.473 28.6706 408.233 29.4832 408.233Z" fill="#A0C5FF"/>
<path d="M29.4832 421.221C30.2959 421.221 30.9526 420.462 30.9526 419.528C30.9526 418.591 30.2938 417.834 29.4832 417.834C28.6727 417.834 28.0139 418.593 28.0139 419.528C28.0139 420.462 28.6706 421.221 29.4832 421.221Z" fill="#A0C5FF"/>
<path d="M35.8264 375.467C36.639 375.467 37.2957 374.707 37.2957 373.773C37.2957 372.839 36.637 372.079 35.8264 372.079C35.0158 372.079 34.3571 372.839 34.3571 373.773C34.3571 374.707 35.0137 375.467 35.8264 375.467Z" fill="#A0C5FF"/>
<path d="M35.8264 388.455C36.639 388.455 37.2957 387.696 37.2957 386.762C37.2957 385.827 36.637 385.068 35.8264 385.068C35.0158 385.068 34.3571 385.827 34.3571 386.762C34.3571 387.696 35.0137 388.455 35.8264 388.455Z" fill="#A0C5FF"/>
<path d="M35.8264 401.444C36.639 401.444 37.2957 400.685 37.2957 399.75C37.2957 398.814 36.637 398.057 35.8264 398.057C35.0158 398.057 34.3571 398.816 34.3571 399.75C34.355 400.685 35.0137 401.444 35.8264 401.444Z" fill="#A0C5FF"/>
<path d="M35.8264 414.433C36.639 414.433 37.2957 413.673 37.2957 412.739C37.2957 411.805 36.637 411.045 35.8264 411.045C35.0158 411.045 34.3571 411.805 34.3571 412.739C34.355 413.673 35.0137 414.433 35.8264 414.433Z" fill="#A0C5FF"/>
<defs>
<linearGradient id="paint0_linear_47_3008" x1="609.673" y1="227.806" x2="667.331" y2="227.806" gradientUnits="userSpaceOnUse">
<stop stop-color="#D1F4FF"/>
<stop offset="0.4183" stop-color="#FBFEFE"/>
<stop offset="1" stop-color="#D1F4FF"/>
</linearGradient>
</defs>
</svg>
